
<svg xmlns="http://www.w3.org/2000/svg" viewBox="0 0 802 713.23">

	<polygon style="fill:none;stroke:#000;stroke-miterlimit:10;" points="0.5 0.73 574.5 0.73 801.5 87.73 801.5 712.73 0.5 712.73 0.5 0.73"/>
	<rect style="fill:none;stroke:#000;stroke-miterlimit:10;" x="0.5" y="0.73" width="69" height="60"/>
	<rect style="fill:none;stroke:#000;stroke-miterlimit:10;" x="69.5" y="0.73" width="70" height="60"/>
	<rect style="fill:none;stroke:#000;stroke-miterlimit:10;" x="139.5" y="0.73" width="69" height="60"/>
	<rect style="fill:none;stroke:#000;stroke-miterlimit:10;" x="208.5" y="0.73" width="72" height="60"/>
	<rect style="fill:none;stroke:#000;stroke-miterlimit:10;" x="0.5" y="60.73" width="69" height="58"/>
	<rect style="fill:none;stroke:#000;stroke-miterlimit:10;" x="0.5" y="118.73" width="69" height="99"/>
	<polygon style="fill:none;stroke:#000;stroke-miterlimit:10;" points="81.5 409.73 120.5 409.73 120.5 328.73 313.5 328.73 313.5 242.73 367.5 242.73 367.5 712.73 81.5 712.73 81.5 409.73"/>
	<rect style="fill:none;stroke:#000;stroke-miterlimit:10;" x="280.5" y="0.73" width="87" height="129"/>
	<rect style="fill:none;stroke:#000;stroke-miterlimit:10;" x="449.5" y="0.73" width="62" height="129"/>
	<polygon style="fill:none;stroke:#000;stroke-miterlimit:10;" points="574.5 0.73 574.5 319.73 724.5 319.73 724.5 542.73 801.5 542.73 801.5 87.73 574.5 0.73"/>
	<rect style="fill:none;stroke:#000;stroke-miterlimit:10;" x="120.5" y="266.73" width="160" height="62"/>
	<rect style="fill:none;stroke:#000;stroke-miterlimit:10;" x="367.5" y="242.73" width="61" height="80"/>
	<rect style="fill:none;stroke:#000;stroke-miterlimit:10;" x="367.5" y="322.73" width="61" height="95"/>
	<rect style="fill:none;stroke:#000;stroke-miterlimit:10;" x="367.5" y="417.73" width="61" height="76"/>
	<rect style="fill:none;stroke:#000;stroke-miterlimit:10;" x="574.5" y="375.73" width="150" height="167"/>
	<rect style="fill:none;stroke:#000;stroke-miterlimit:10;" x="95.5" y="80.73" width="157" height="130"/>
</svg>